<svg xmlns="http://www.w3.org/2000/svg" viewBox="0 0 717 231.32"><title>Asset 3</title><g id="Layer_2" data-name="Layer 2"><g id="OBJECTS"><g id="Jawa"><path d="M711.34,125.61a9.87,9.87,0,0,1,1,.68c.2.1.39.2.57.31,3.5,2,4.95,4.92,3.48,7.77L714.56,138l-6.31,1c-6,1-9.64,1.45-11.84,1.64a23.93,23.93,0,0,1-10.2,2.19,28.26,28.26,0,0,1-2.92-.16,24.16,24.16,0,0,1-9.38-2.68,12.8,12.8,0,0,1-1.81-1.24l-.26-.12c-.39-.2-.86-.44-1.36-.72-1.54-.88-3.37-2.2-4.06-4.17a8.39,8.39,0,0,1,.07-5.44c2.11-4.86,10.34-5.7,16.92-6.37l1.05-.1h1.09a48.21,48.21,0,0,1,11.18,1.32c.44,0,.93,0,1.44,0h1.63C705.52,123.32,709.11,124.33,711.34,125.61Z" style="fill:#1f1e21;opacity:0.4"/><path d="M116.21,2.05C114,3.84,113.53,4.42,113,6.91c-.06.82,1.42,3,2.13,4,5.12,4.86,5.51,8.75,1.93,13.56-1.32,3.22-2.07,5.46-5.17,7.87-2.61,7.55-.89,11-.83,14.81l0,9.13c0,2.63-1.37,6.82-3.65,13.43a90.27,90.27,0,0,0-2.67,8.69l0,7.24,6.76-3.57,5.93,12.2a72,72,0,0,1,11.17-.81c7.6,0,16.55,2.3,21.38,3.75A30.49,30.49,0,0,1,159.52,95a49.36,49.36,0,0,1,8.09-.76c11.36.28,15.26.32,19.21,1.64A54.67,54.67,0,0,1,199,100.5a15.38,15.38,0,0,1,4.37,3.57c18.62.81,24.34,1.75,27.61,2.69a27.23,27.23,0,0,1,5.67-.57c7.7,0,14.25,1.4,18.61,3.91,4.94,4.15,10.53,9.35,14.85,12.84a52.59,52.59,0,0,1,5.31,5,32.71,32.71,0,0,1,7.14-.74,91.41,91.41,0,0,1,14.29,1.66l16,2.95c6.32.37,22.35.57,32,.69,4,0,7.2.07,8.76.12a60.88,60.88,0,0,1,12.8,1.37c9.16-10.26,17.89-20,33.7-20,11.3.9,18.23,1.8,23.91,5.08a23,23,0,0,1,3.92,2.85c5.52.33,8.76-.3,12.3-.3a27,27,0,0,1,7.39,1,42.62,42.62,0,0,1,9.33,3.61,32.08,32.08,0,0,0,8.62,1.53c4.54.06,10.34,1,14.42,3.34a39.77,39.77,0,0,0,9.62,1.21c2.14-.15,6.5-.41,10.72-.41,2.74,0,9.46,0,14.78,2.08a29.51,29.51,0,0,1,9.52-1.76c3.84-.18,13.91-.18,38.33-.18h35a22.6,22.6,0,0,1,11.43,3L630,137.89a21.7,21.7,0,0,1,11,2.85,19.34,19.34,0,0,1,6.67,6.19c1.36,3.07-.12,6.06-4.38,8.82a21.39,21.39,0,0,1-13.34,4.1c-2.32.74-6.07,2.56-12,2.56a25.8,25.8,0,0,1-9-1.55,43.87,43.87,0,0,1-6.41-3.05c-13.83,2.57-18.46,4-27.43,5-7.11,1-10.1,1.47-15.65,1.57-2.11.06-4.52.11-6.87.13-3.91.07-7.91.12-10.38.28-3.1,1.07-1.88,2.27-1.13,2.7,2.37.56,4,1,5.28,1.35a95.37,95.37,0,0,0,13.27-1.15c5.21-1.32,15.22-2.1,19.25-2.1,1.34,0,3.57-.13,5.92-.25,3.51-.16,7.17-.34,10.1-.34,11.3,0,15.18.62,17.74,1.29,1.59.36,7,1.31,11.25,2.06l6.6,1.13,2.61,3.66c1.54,2.12,4.13,6.15,4.11,9.35,8.32,2.05,11.25,2.09,13.66,2.1,5.19-.49,7.23-1.08,9.88-1.48a38.45,38.45,0,0,1,10.8-1.59,49,49,0,0,1,7.39.63c2.11.34,3.85.54,5.28.69a47.18,47.18,0,0,1,10.21,2s-2.34-45.13,6.55-41.16C709.5,147.5,714,121.9,714,182.85c0,13.77-4.35,17.42-4.35,30.48s-13.42,15.95-13.42,15.95a24.73,24.73,0,0,1-10.15,2,26.76,26.76,0,0,1-8.8-1.45c-10.06-1.68-14.66-.22-19.72-.21a21,21,0,0,1-10.69-2.55,16.91,16.91,0,0,1-6.58-7.11c-4.34,4.72-8.81,8.13-19.89,8.51-7.69,0-14.68-.3-19.86-3.29a11,11,0,0,1-3.4-3c-3.27-.83-5.44-1.3-6.76-1.57-2,.16-3.87.16-5.34.16-5.19,0-12.18-.27-12.49-.27l-6.53-.24-4-3a46.81,46.81,0,0,0-4.5-3.05c-4.63-1.65-9.55-3.36-11.14-3.75s-5.74-.89-7.42-1.05a33.21,33.21,0,0,0-5.56.46c-6.34,1.38-9.66,2.14-15.3,3a100.69,100.69,0,0,1-17.82,1.56c-4.52,0-9.89-.53-14.17-.95-6.41-.57-11.18-1-17.65-1.56-1.77-.18-5.16-.55-9.44-1-10.66-1.22-28.44-3.27-37.69-3.47-4.73-.09-8.82-.12-12.39-.14-7.36-.05-13.19-.11-18.59-.69s-14.12-2.44-26-5c-3.76-.79-7.21-1.52-9.81-2-3.15-.62-7.39-1.59-13-2.95l-9.69-2.39c-4.15-1-7.7-1.91-9.56-2.31-2.3-.52-4.47-1.14-6.76-1.79a71,71,0,0,0-11.13-2.51l-5.71-.51c-4-.36-10.23-.94-13.28-1.15a58.72,58.72,0,0,1-8.3.77c-.12,0-9.8-.33-16.59-2.88l-5.21,2.5a106.31,106.31,0,0,1-23.67,2.15c-6.17,0-8.7-.16-10.23-.3a47.89,47.89,0,0,1-10.54-1.78c-4.31-1.08-21.24-5.25-26.14-7.62-13.72-2.78-15.76-2.66-18.18-2.67-3,0-6.07-.16-9.43-.48-3.85-.39-7.94-.74-11.73-1.06-5-.43-9.31-.8-12.31-1.19-6.91-.36-13.65-.68-18.58-3.53-6.84-6.42-9.17-9.11-9.19-12.15a14.19,14.19,0,0,1,1.26-4.84c-3.76-.76-8.71-1.93-11.28-2.78a72,72,0,0,0-18.3-1.5c-3.72.1-7,.21-9.27.21-3.39-.09-16.46-.9-20.49-1.4A31,31,0,0,1,37,143.81c-3.26-1.88-5.8-4.39-5.82-7.28a14.63,14.63,0,0,1,1.2-3.57,23.51,23.51,0,0,1-9.9-2.72c-5.78-3.32-7.84-6.38-7.14-9.66s3.9-6,7.44-7.55l-5.2-.39c-4.88,0-12.88-6.49-17.59-8.15V91.43L4.35,78.37l4.36-8.71m27.67,40.51,10.87-.64,5-.69v4.36H65.3v4.35c1.22-.71-.54.39,0,0m0-4.35c1.43-1-4.69,1,0,0h4.36c.44-2.6,2.62-3.42,5-6.6l.18-.28a31.56,31.56,0,0,1-11.55-2.16,26.38,26.38,0,0,1-3.2-1.59,40,40,0,0,1-3.66-2.41,24.42,24.42,0,0,1-3.26.94,26.15,26.15,0,0,1-11,2.28A36.31,36.31,0,0,1,32.8,102a10,10,0,0,1-.48,2c0,2.79,4.28,3.69,2.51,4.82h0c2.41-.9,1.33,0,4.35,0" style="fill:#1f1e21;opacity:0.28"/><path d="M104.6,44.62a3.44,3.44,0,0,1,.08-.46c.08-.36.2-.83.36-1.37l.09-.3c.17-.57.36-1.19.57-1.85,0-.12.09-.25.13-.38.22-.68.45-1.38.68-2.06s.52-1.57.75-2.26c.5-1.45.94-2.74,1.34-4l.35-1.06c.29-.91.56-1.76.79-2.55.08-.28.17-.58.25-.84.25-.92.47-1.77.62-2.52a.34.34,0,0,0,0-.1c.08-.39.09-.71.14-1.06s.14-.82.15-1.15v-.2" style="fill:#028455"/><path d="M712.75,52l-2.2,4.34-7.47,1.25c-1.7.3-3.21.54-4.59.76l-1.38.2-2.36.35-1.28.16-1.71.22-1,.11-1.67.16a24,24,0,0,1-3,1.19c-.3.1-.61.17-.92.26-.79.23-1.58.43-2.4.59s-1.48.27-2.24.36l-.4.06c-1,.1-2.07.16-3.12.16a32.78,32.78,0,0,1-3.45-.19c-.95-.11-1.84-.25-2.72-.4l-.77-.14c-.93-.18-1.82-.39-2.66-.63l-.58-.19c-.64-.21-1.28-.42-1.87-.66a20.65,20.65,0,0,1-2.5-1.19,15.27,15.27,0,0,1-2.14-1.48l-.31-.14c-.46-.24-1-.53-1.6-.87-1.82-1-4-2.62-4.81-5a8.37,8.37,0,0,1-.36-1.51A11.25,11.25,0,0,1,653.1,48h0l-.17,58.65a10.24,10.24,0,0,0,.5,3.28c.81,2.36,3,3.93,4.8,5,.59.34,1.15.63,1.61.87l.3.14a15.65,15.65,0,0,0,2.15,1.48,19.81,19.81,0,0,0,2.49,1.19l.17.08c.54.21,1.12.39,1.71.58l.58.19.06,0c.72.21,1.47.39,2.25.55l.34.06.78.14,1.27.22,1.45.18.91.08c.59,0,1.2.09,1.8.1h.74l1,0c.66,0,1.32-.06,2-.13H680l.42-.06c.6-.07,1.21-.15,1.81-.25l.41-.11c.82-.16,1.61-.37,2.4-.59.25-.08.52-.11.76-.19l.17-.07a24.49,24.49,0,0,0,3-1.19l1-.09.7-.07,1-.12,1.72-.21,1.26-.16,2.36-.35,1.38-.2c1.39-.22,2.9-.47,4.59-.76l7.47-1.25,2.21-4.34a7,7,0,0,0,.31-.69c.05-.16.08-.31.13-.46s.06-.19.08-.29,0-.11,0-.17a5.63,5.63,0,0,0,.1-.91s0-.1,0-.14l.16-58.65a5.73,5.73,0,0,1-.15,1.22l-.09.29A6,6,0,0,1,712.75,52Z" style="fill:#6a3e00"/><path d="M699.34,137.62l-.4-.09c-.64-.14-1.23-.28-1.77-.43l-.93-.26h0a22,22,0,0,1-2.18.83l-.3.08a24.48,24.48,0,0,1-2.49.62c-.63.12-1.27.22-1.94.3l-.37.05a26.47,26.47,0,0,1-2.87.15,28,28,0,0,1-4.41-.36l-.28,0a24.24,24.24,0,0,1-4.11-1c-.57-.09-1.12-.18-1.65-.25-.34,0-.62-.07-1-.11-.59-.08-1.16-.14-1.71-.19l-.71-.09-.84,0-1.43-.08-.61,0H666.5l-.36,0c-1.37.05-2.62.15-3.8.25s-2.32.19-3.44.25c-.45,0-.89,0-1.34,0a27.75,27.75,0,0,1-3.12-.18l-.3,0a24.93,24.93,0,0,1-2.51-.47l-.37-.09a19.39,19.39,0,0,1-2.19-.72,16.65,16.65,0,0,1-2.2-1.06,16.91,16.91,0,0,1-6.58-7.11c-.65.7-1.3,1.36-2,2l-.48.43a22.29,22.29,0,0,1-3.25,2.48c-.33.21-.69.4-1,.59s-.61.34-.93.49-.93.4-1.41.58-.64.27-1,.39-.65.17-1,.26c-.73.21-1.48.41-2.3.57-.61.12-1.25.22-1.92.31-.36,0-.7.11-1.08.15-1.11.12-2.28.22-3.55.26-1.69,0-3.32,0-4.93-.07l-1.5-.08c-1.43-.07-2.84-.17-4.19-.34l-.32,0a30.93,30.93,0,0,1-4.6-1l-.28-.09a19.16,19.16,0,0,1-4-1.71,10.89,10.89,0,0,1-3.4-3l-2.17-.54-.7-.17-1.11-.26-.59-.14-.91-.2-.43-.09-.5-.11-.35-.07c-.88.07-1.74.11-2.55.13l-2.79,0-3.18,0h-.58l-.87,0,1.88-.32.57-.09.72-.14.65-.12,2.53-.49.41-.09,2.57-.52,3.71-.76.11,0L597,125l.93-.18c1.36-.27,2.8-.55,4.38-.84.93.54,1.87,1,2.78,1.47l.42.21c.84.4,1.62.74,2.31,1l.21.09c.24.1.47.19.68.26q.87.31,1.77.57t1.8.45c.23,0,.47.08.7.12l.28.05.63.11c.5.07,1,.12,1.52.17s1,.07,1.52.08h.83l1,0c.62,0,1.21-.06,1.78-.12.36,0,.67-.09,1-.14l.55-.08.52-.07c.39-.07.67-.18,1-.26.82-.18,1.6-.36,2.29-.58l.38-.09c.42-.14.77-.26,1.14-.4.88-.31,1.67-.6,2.32-.81h1c.58,0,1.15-.06,1.72-.12.27,0,.52-.07.79-.11l.51-.07c.22,0,.45,0,.67-.09.68-.12,1.32-.31,2-.49.26-.07.54-.12.79-.2l.17,0c.18-.06.33-.17.51-.23a18.63,18.63,0,0,0,3-1.37c.15-.08.34-.13.48-.22a16.44,16.44,0,0,0,1.67-1.15,17.25,17.25,0,0,0,2.21-1.69l.11-.09a10.85,10.85,0,0,0,1.15-1.23s.06-.1.1-.15l.15-.21c.14-.21.29-.41.4-.61a5.59,5.59,0,0,0,.41-.86s0,0,0,0a.64.64,0,0,1,0-.07,4.41,4.41,0,0,0,.2-.71,4.59,4.59,0,0,0,.1-.82v-.13l.17-58.65a5.06,5.06,0,0,1-.3,1.66s0,0,0,.07a6.85,6.85,0,0,1-.83,1.51l-.14.22a11.39,11.39,0,0,1-1.36,1.46,17.39,17.39,0,0,1-2.22,1.69,15.72,15.72,0,0,1-2.15,1.37,18.26,18.26,0,0,1-3,1.37c-.23.08-.43.2-.67.27s-.53.13-.8.2a24,24,0,0,1-2.63.58l-.52.07a24.06,24.06,0,0,1-3.53.24c-.64.21-1.44.5-2.31.81l-1.53.5c-.69.21-1.49.39-2.29.57-.51.12-1,.24-1.55.33l-.56.08a26.39,26.39,0,0,1-8.24-.09l-.28,0a24.88,24.88,0,0,1-4.27-1.14c-.26-.09-.58-.22-.9-.35-.68-.27-1.47-.62-2.31-1l-.4-.2c-.91-.45-1.86-.94-2.8-1.48h0l-4.31.82-1.05.21-3.41.68-.12,0-3.52.72-2.79.57-.38.08c-.86.17-1.7.34-2.53.49l-.64.12-1.29.23c-.84.15-1.68.29-2.54.42l-1.08.16c-1.2.17-2.42.34-3.77.48l-2.55.37-.71.09-1.62.23-.73.1-1.35.17-.71.08-1.18.13-.67.07-1.77.15-.43,0-2.24.11-1.69,0c-2.11,0-4.52.1-6.87.12l-3.25.06-1.31,0-2.8.07h-.72c-.78,0-1.49.06-2.12.1h-.18a6.25,6.25,0,0,0-1.08.49l-.11,0a3.4,3.4,0,0,0-.28.21l-.13.09,0,0-.17.19a.71.71,0,0,0-.1.14v0h0a.47.47,0,0,0,0,.1.53.53,0,0,0,0,.12.69.69,0,0,0,0,.13v0L540,117.07c-.39,0-.81-.1-1.09-.12l-1.2,0h-.29c-.52,0-1.07.06-1.67.11l-.32,0-.18,0c-.45,0-.9.11-1.37.19-.13,0-.25,0-.37,0l-.16,0-2.43.53-1,.2-1.87.4-.63.14-2.22.45-.44.09-1.79.34-.64.11-1.48.26-.59.1-2.26.35-2.74.4-.77.1-1.65.23-.85.11-1.32.15-.83.09-.78.08c-1.72.17-3.3.27-4.94.33H504c-1.17,0-2.36.05-3.69.05-.73,0-1.51,0-2.28-.05-1.89-.07-3.85-.18-5.78-.34l-2-.17-1-.1c-1.06-.09-2.09-.2-3.06-.29l-17.65-1.56c-1.77-.18-5.16-.55-9.44-1l-3.7-.42-1.08-.13-3.51-.39-1-.11-4.48-.49-1.06-.11-3.74-.38-1.19-.12c-1.54-.15-3.06-.3-4.55-.43l-.75-.07-2.42-.21-.8-.06-3-.22-1.92-.13c-1-.06-1.91-.09-2.82-.13l-1.22-.06h-.49c-4.73-.08-8.82-.12-12.39-.14l-4.88,0-1.37,0c-1.09,0-2.16,0-3.19-.06l-1.56-.06c-.9,0-1.79-.07-2.66-.12l-1.58-.1c-1.13-.08-2.26-.16-3.35-.28-.61-.07-1.28-.16-2-.26s-1.73-.26-2.69-.42l-.3-.05-2.82-.5-1.12-.22-2.39-.46-1.4-.28-2.52-.51-1.51-.32-3.33-.69-1.12-.24-4.86-1-2.82-.6-1.29-.27-1.59-.33-.5-.11-.38-.07-3.23-.66-2.07-.42-1-.22-1.75-.39-1.18-.27-2.27-.53-.94-.22-3.76-.9c-3.27-.79-6.6-1.63-9.69-2.39-4.15-1-7.7-1.9-9.56-2.31-2.3-.51-4.47-1.13-6.76-1.79l-3.26-.89-1-.27c-.87-.22-1.73-.43-2.59-.62l-.75-.17-.42-.08-1-.18c-.31,0-.63-.12-.93-.16s-.75-.1-1.12-.14l-5.71-.51-2.92-.26-2.44-.22h0l-2.5-.22-.47,0L288,93.66l-.23,0-.24,0-2.15-.17h0l-2.64.35-.85.1-1.31.14c-.8.08-1.5.13-2.18.16l-1.32,0-.42,0h-.11c-.51,0-1.41-.08-2.51-.18l-1-.09-1.18-.13-1.18-.15c-.37,0-.75-.1-1.14-.16-1-.15-2.13-.33-3.24-.55l-.3-.06c-1-.21-2-.45-3-.72s-1.71-.51-2.52-.81c-1.31.61-3.47,1.66-5.21,2.49-1.63.36-3.18.6-4.74.85-1.35.21-2.67.4-4,.55-.88.1-1.76.2-2.61.28-1.61.14-3.18.24-4.7.3l-1.83.09c-2,.06-4,.09-5.82.09l-2.81,0h-.59l-2.16,0h-.32l-1,0-.35,0-.73,0-.45,0-.48,0-.37,0-.38,0-.55,0c-.82-.06-1.52-.13-2.19-.2l-.46,0c-.64-.07-1.24-.14-1.78-.22h0c-.81-.12-1.54-.24-2.3-.4l-.08,0c-.48-.1-1-.21-1.5-.34l-.43-.11-1.78-.45-2.47-.62L208,93.2l-1.32-.33-.51-.13-1.32-.34-.66-.17-1.55-.41-.55-.14-2.2-.58-.18,0-2-.54-.69-.2-1.51-.42-.78-.22-1.65-.48-.72-.21-2.16-.67-.24-.07-1.72-.57-.56-.2L186.46,87l-.46-.18c-.49-.19-.94-.38-1.31-.56-1.36-.28-2.57-.51-3.7-.73l-.56-.11-2.91-.55-.49-.08-2.35-.41-.3,0-1.86-.28-.1,0h0L171,83.87l-.26,0-1.12-.11h-.13c-.61,0-1.13-.08-1.58-.09h-1.35c-1,0-2.1-.05-3.17-.08s-2.36-.11-3.59-.2c-.88-.06-1.75-.11-2.67-.2-3.85-.39-7.94-.74-11.73-1.06-5-.42-9.31-.8-12.31-1.18-1.82-.1-3.62-.2-5.39-.34-1.52-.12-3-.26-4.46-.48l-.43-.07a32.54,32.54,0,0,1-4.14-.91l-.35-.12a19,19,0,0,1-3.81-1.61c-4.16-3.92-6.64-6.43-8-8.5l0-8.5c-.93-.19-1.94-.4-3-.63l-.23-.05-2.58-.6-.79-.2-1.89-.48-.77-.21c-.77-.21-1.49-.42-2.06-.61-1.09-.2-2.1-.37-3.07-.53l-.9-.14-1.12-.17-.68-.09-1.1-.14-1.46-.16-1-.09-.43-.05-.4,0C84,56.12,83,56.06,82,56h-.06c-.85,0-1.63,0-2.38,0H79l-2,.06-2.19.06.12-42.28a36.59,36.59,0,0,1-5.94-.57l-.31-.05L61,21.77,48.06,10.3c-.54.11-1.09.23-1.7.32-.23,0-.45.07-.68.09-1.07.13-.88,2.35-2.14,2.35H39.18s-8.13,2-8.17,2.1a8.4,8.4,0,0,1-1.08,1.15,10.56,10.56,0,0,1-1.42,1.09L26,19.07l-4.18,2.7c-.22-.07-5.77,4.1-5.77,4.1M704.55,197.16l1.27.17,1.19.16,2,.25M15.23,29.64q-3.27,20-6.52,40c-.16,6.33.25,7.86.67,8a6,6,0,0,1,.73.18l1,.25.79.2q.87.18,1.77.3l.17,0,.22,0,1,.11,0,9.24c0,2.84,2.2,5.55,7.27,8.46a17.59,17.59,0,0,0,2.32,1.11l.09,0,.36.12c.49.18,1,.36,1.47.5l.53.13.59.14.62.15c.44.09.86.16,1.29.23l.36.06.12,0c.33,0,.64.07,1,.11l0,3.69c0,2.9,2.56,5.4,5.82,7.28a27.88,27.88,0,0,0,3.65,1.75c.32.12.64.21,1,.32l.82.28c.39.13.78.28,1.17.39.77.22,1.54.41,2.3.57.43.09.86.17,1.28.23s1.1.13,1.8.19l.77.07,1.2.11.41,0,.85.06,1.79.14,1,.07,2,.14.81.06,2.76.17.63,0,2,.11.74,0,1.59.08.56,0,1.55.06c2.26,0,5.55-.11,9.28-.21l2-.06h.61c.75,0,1.53,0,2.38,0h.06c.94,0,2,.09,3.11.17l.85.07c.3,0,.62,0,.93.09l1.49.16,1.09.14,1.81.26.89.14c1,.16,2,.33,3.07.53.45.15,1,.31,1.55.47l.51.14.79.21,1.84.47.84.21,2.66.62.12,0,1.73.37,0,5.1c0,3,2.36,5.73,9.19,12.16a17.6,17.6,0,0,0,2.36,1.12c.47.19,1,.34,1.46.49l.34.12.28.09c.68.19,1.38.36,2.09.51s1.18.21,1.77.31l.44.07.28.05c1.21.17,2.45.3,3.71.4l.47,0c1.77.14,3.57.24,5.39.33,3,.39,7.3.76,12.31,1.19,3.78.32,7.87.67,11.72,1.06l1.49.13c.41,0,.79,0,1.2.07,1.21.09,2.41.15,3.57.2l1,.05,2.17,0h1.35c.45,0,1,0,1.58.09h.12l1.12.11.26,0,1.46.19h.06l1.91.29.3.05c.71.12,1.5.25,2.36.41l.48.08,2.91.55.56.1,3.7.74c.37.17.82.36,1.31.56l.13.06.34.12,1.21.44.56.2,1.71.56.24.08c.7.22,1.43.45,2.19.67l.63.19,1.75.51.36.1.38.11,1.42.4.84.23,1.62.44.56.15,2.15.57.54.14,1.56.41.71.18,1.13.29.84.21.88.22.86.22.47.12.78.2,1,.24,1.77.45.44.11c.52.13,1,.24,1.5.34l.06,0h0c.76.15,1.5.28,2.31.4h0q.81.12,1.77.21l.5.06c.66.06,1.35.13,2.16.19l.48,0h0l.4,0,.39,0,.48,0,.41,0,.69,0,.44,0,.9,0,.41,0h0l2.16,0h3.4c1.87,0,3.82,0,5.82-.08h.57c.4,0,.85-.06,1.26-.08,1.53-.07,3.09-.16,4.7-.3.39,0,.74,0,1.14-.08s1-.15,1.47-.2c1.3-.15,2.62-.34,4-.55.54-.09,1-.12,1.58-.22,1-.19,2.09-.4,3.16-.63l5.2-2.5c.77.29,1.56.55,2.38.78l.15,0c1,.27,2,.51,3,.72h0l.23,0c1.12.23,2.21.41,3.26.56l.38.07.76.09,1.18.15,1.19.13,1,.09.39,0c1,.08,1.68.12,2.14.14h.54l1.1,0h.22c.67,0,1.37-.08,2.17-.16h0c.45,0,1-.11,1.48-.17l.64-.07,2.65-.35,2.17.17.47,0,2.27.2.51,0,5.91.53,2,.18,5.71.51c.64.06,1.35.18,2.05.3l1,.18,1.17.25c.86.19,1.72.4,2.6.62l1,.27c1.11.29,2.21.6,3.26.89l.33.09.18.06c2.11.6,4.13,1.16,6.25,1.64,1.86.4,5.41,1.29,9.57,2.31l9.69,2.39,3.7.89,1.08.25,2.21.52,1.12.25,1.79.4,1,.22.76.16,1.31.26,3.32.68.68.14,1.8.37,1.18.25,2.83.6,4.72,1,1.45.31,3.12.65.81.17.71.14,2.53.52,1.39.28,2.39.46,1.13.21q1.49.28,2.82.51l.29.05,2.69.42.17,0c.64.09,1.25.17,1.81.23s1.4.14,2.11.2l1.24.08,1.59.1c.86,0,1.75.09,2.66.12l1.55.06.54,0,2.65,0,1.37,0,4.88,0c3.57,0,7.66.05,12.4.14.51,0,1.14.05,1.71.07.9,0,1.81.07,2.82.13l1.92.13,3,.22,3.22.27.74.06c1.49.14,3,.28,4.55.44l1.2.12,3.73.38,1.07.11,4.49.49.91.1,3.58.4q.53.08,1.05.12l3.7.43c4.28.49,7.67.86,9.44,1l17.65,1.56,3.06.29,1,.09,1.83.16.25,0c1.94.16,3.88.27,5.77.33l.62,0,1.66,0c1.32,0,2.51,0,3.67-.05h.28c1.64-.06,3.22-.16,4.94-.33h.18l.59-.07.84-.09,1.31-.16.86-.1,1.65-.23.76-.1,2.74-.41,2.24-.34.69-.12,1.38-.23.32-.06.38-.07,1.7-.32.52-.1,2.19-.45.61-.13,2-.44.57-.12,2.69-.59.55-.08c.45-.07.9-.14,1.34-.18l.52,0c.58-.05,1.14-.09,1.65-.11h.29l1.2,0c.43,0,1,.1,1.68.19l.47.06,1.65.22,1.39.21.64.09c.64.1,1.19.19,1.59.27l.61.17c.44.12,1,.3,1.65.51l.37.12,2.22.74.4.14,2.67.93.24.08,3,1.06a46.78,46.78,0,0,1,4.49,3.05l4,3,6.53.25h.28l.62,0,.85,0h.33l1,0,.81,0,1,0,.59,0h.22c1,0,2,.05,3,.06h.59l3.17,0,2.79,0h.42c.68,0,1.4-.06,2.14-.12l.81.17.48.11.84.18.65.15,1,.24.82.19,2.14.54h0a10.9,10.9,0,0,0,3.41,3,19.06,19.06,0,0,0,2.45,1.18c.51.2,1,.36,1.58.53l.29.09.21.08c.65.18,1.32.34,2,.48s1.45.28,2.2.38l.18,0,.32,0c.74.09,1.47.18,2.23.24s1.31.07,2,.1l1.5.08c.23,0,.45,0,.68,0,1.39,0,2.8,0,4.24,0h0c1.12,0,2.17-.11,3.16-.21l.36-.05c.38,0,.73-.1,1.1-.15s1-.12,1.44-.2c.17,0,.29-.08.46-.11.82-.16,1.58-.36,2.31-.57.24-.07.52-.11.75-.18a1.31,1.31,0,0,1,.21-.08c.35-.12.67-.26,1-.39s1-.37,1.39-.58.63-.33.94-.49.58-.29.85-.45c.07,0,.12-.1.18-.14a22.29,22.29,0,0,0,3.25-2.48c.07-.06.15-.1.21-.16a3.44,3.44,0,0,0,.27-.27c.67-.64,1.33-1.3,2-2a16.89,16.89,0,0,0,6.59,7.11,15.92,15.92,0,0,0,2.19,1.06l.1,0a15.41,15.41,0,0,0,1.74.59l.35.09.37.09c.25.06.49.13.75.18.45.09.92.18,1.4.24l.36,0,.31,0,.77.08c.5.05,1,.07,1.56.09h.78l1,0,.34,0c1.12-.05,2.26-.14,3.45-.24s2.43-.2,3.79-.25l.93,0h1.64l1.3,0,1.42.08,1.54.12c.55.06,1.13.12,1.72.2.83.1,1.67.2,2.59.36h0c.46.16.92.31,1.4.44s1.18.32,1.79.44c.3.07.61.11.92.16l.28,0,.46.08q.81.12,1.62.18c.54.05,1.08.08,1.61.09h.72l1,0q.93,0,1.8-.12h.09l.35-.05c.56-.06,1.1-.13,1.62-.22l.33-.09a21.75,21.75,0,0,0,2.5-.62,1.83,1.83,0,0,0,.25-.06h0a21.83,21.83,0,0,0,2.17-.83l.63.19.32.07c.54.15,1.12.29,1.76.43l.28.06.13,0c.7.14,1.46.28,2.3.42.16,0,8-5.16,8.17-5.13,0,0,0-34.83-4.36-47.89s3.78-19.52,4.07-29.35" style="fill:#6a3e00"/><path d="M706.74,41.5a13.81,13.81,0,0,1,1.23.81l.67.37c4.14,2.39,5.86,5.9,4.11,9.3l-2.2,4.34-7.47,1.25c-7.14,1.24-11.41,1.73-14,2A28.11,28.11,0,0,1,677,62.15a32.78,32.78,0,0,1-3.45-.19,28.29,28.29,0,0,1-11.1-3.21,15.27,15.27,0,0,1-2.14-1.48l-.31-.14c-.46-.24-1-.53-1.6-.87-1.82-1-4-2.62-4.81-5a10.1,10.1,0,0,1,.09-6.51c2.5-5.82,12.23-6.82,20-7.62l1.25-.12h1.28a55.89,55.89,0,0,1,13.23,1.57c.52,0,1.1,0,1.71,0h1.92C699.85,38.76,704.09,40,706.74,41.5Z" style="fill:#ff8d2a"/><path d="M100.13,0,82.72,8.71c.9.9-5.38,3.88-4.35,4.35,3.32,1.36-7.71.76-3.49.8l-.18.3a21.29,21.29,0,0,0-3.87,9.47l0,.12A22.34,22.34,0,0,0,62,27.68a21,21,0,0,1-2.51,1.66l-.26.13L59,26.82l-6.73-3.19-.68-.94L47.25,17.1l-10.87.6-13.6,2.9c-3.54,1.58-6.73,4.18-7.42,7.55s1.37,6.35,7.12,9.63a23.73,23.73,0,0,0,9.89,2.73,17.23,17.23,0,0,0-1.19,3.58c0,2.9,2.56,5.41,5.84,7.29a31.74,31.74,0,0,0,10.15,3.54c4,.47,17.13,1.28,20.5,1.36,2.26,0,5.54-.08,9.29-.17,4.1-.17,8.74-.3,18.29,1.49,2.56.85,7.5,2,11.26,2.77a14.9,14.9,0,0,0-1.24,4.86c0,3,2.34,5.71,9.21,12.15,4.9,2.82,11.64,3.16,18.58,3.5,3,.42,7.29.76,12.28,1.19,3.8.34,7.89.68,11.72,1.07a92.84,92.84,0,0,0,9.47.47c2.39,0,4.43-.09,18.16,2.68,4.9,2.39,21.82,6.52,26.13,7.63a48.57,48.57,0,0,0,10.53,1.79c1.53.13,4.09.3,10.23.3a106.73,106.73,0,0,0,23.7-2.17c1.71-.81,3.88-1.88,5.2-2.48,6.78,2.52,16.46,2.86,16.59,2.86a53.6,53.6,0,0,0,8.31-.77c3,.22,9.29.81,13.26,1.15l5.71.52a68.37,68.37,0,0,1,11.13,2.51c2.3.64,4.47,1.28,6.77,1.79,1.88.39,5.42,1.28,9.55,2.3l9.72,2.39c5.59,1.37,9.81,2.35,13,2.94,2.6.51,6.06,1.24,9.81,2,11.93,2.56,20.71,4.39,26,5a185.25,185.25,0,0,0,18.59.68c3.58,0,7.67,0,12.4.13,9.26.21,27,2.26,37.69,3.49,4.26.47,7.67.85,9.42,1,6.48.56,11.25,1,17.65,1.58,4.3.43,9.68.94,14.19.94a103.11,103.11,0,0,0,17.82-1.53c5.63-.86,9-1.62,15.31-3a28.55,28.55,0,0,1,5.54-.47c1.71.17,5.8.77,7.42,1.07s6.52,2.09,11.17,3.75a50.19,50.19,0,0,1,4.47,3l4,3,6.56.26c.3,0,7.29.25,12.45.25,1.49,0,3.37,0,5.37-.17,1.32.3,3.46.77,6.74,1.58a10.83,10.83,0,0,0,3.41,3c5.16,3,12.15,3.32,19.86,3.28,11.09-.34,15.56-3.75,19.87-8.48a17.11,17.11,0,0,0,6.61,7.12,20.87,20.87,0,0,0,10.7,2.51c5,0,9.63-1.45,19.69.21a26.13,26.13,0,0,0,8.83,1.45s6.13,4.82,10.49.47,0-17.42,0-17.42,13.06-4.35,13.06-8.7-5.27-17.62-5.27-17.62c-3.11-1.79-6.94-2.6-10-3.19a46,46,0,0,0-10.23-2c-1.45-.17-3.16-.39-5.29-.73a51.25,51.25,0,0,0-7.37-.64,38.13,38.13,0,0,0-10.79,1.62c-2.68.39-4.73,1-9.89,1.49-2.43,0-5.37-.08-13.68-2.13,0-3.19-2.56-7.2-4.09-9.33L630.46,77l-6.6-1.15c-4.31-.72-9.68-1.66-11.26-2-2.55-.64-6.43-1.27-17.73-1.27-2.94,0-6.61.17-10.1.34-2.35.12-4.61.25-5.93.25-4.05,0-14,.77-19.27,2.09a94.48,94.48,0,0,1-13.26,1.15c-1.23-.34-2.89-.81-5.28-1.36-.73-.43-2-1.62,1.15-2.69,2.47-.17,6.48-.21,10.36-.3,2.34,0,4.77,0,6.86-.08,5.59-.13,8.57-.6,15.69-1.58,8.95-1,13.6-2.47,27.41-5a44.15,44.15,0,0,0,6.39,3.07A27,27,0,0,0,618,70c5.89,0,9.64-1.83,12-2.55a21.69,21.69,0,0,0,13.35-4.1c4.26-2.77,5.71-5.75,4.34-8.82A18.16,18.16,0,0,0,641,48.31a21.66,21.66,0,0,0-11-2.86l-20.47-2.9a22.57,22.57,0,0,0-11.42-2.94h-35c-24.39,0-34.49,0-38.33.17a28.77,28.77,0,0,0-9.5,1.75c-5.33-2.09-12.07-2.09-14.79-2.09-4.23,0-8.57.26-10.7.43a40.28,40.28,0,0,1-9.64-1.2c-4.09-2.38-9.89-3.28-14.41-3.36a32.92,32.92,0,0,1-8.61-1.54,45,45,0,0,0-9.33-3.62,28.1,28.1,0,0,0-7.42-1c-3.54,0-6.78.64-12.28.3a25.12,25.12,0,0,0-3.92-2.86c-5.67-3.24-12.62-4.18-23.92-5.07-15.81,0-24.55,9.76-33.72,20a63.59,63.59,0,0,0-12.79-1.36c-1.53-.05-4.73-.09-8.73-.13-9.68-.13-25.71-.3-32.06-.68l-16-2.94a88.1,88.1,0,0,0-14.28-1.67,33.74,33.74,0,0,0-7.16.73,54.48,54.48,0,0,0-5.29-5c-4.35-3.5-9.93-8.7-14.88-12.83-4.35-2.52-10.87-3.92-18.58-3.92a27.07,27.07,0,0,0-5.67.55,48,48,0,0,0-7.68-1.36c-4.17-.47-10.31-.9-19.95-1.33a15.78,15.78,0,0,0-4.35-3.53c-3.36-2-7.67-3.33-12.23-4.61-4-1.32-7.84-1.36-19.23-1.66a50.18,50.18,0,0,0-8.05.77A30.67,30.67,0,0,0,150,4.78C145.21,3.33,136.26,1,128.67,1a72.76,72.76,0,0,0-11.17.81Z" style="fill:#ff8d2a"/><path d="M696.92,44.88a6.92,6.92,0,0,1,.72.48l.39.21C700.44,47,701.44,49,700.42,51l-1.28,2.52-4.35.73c-4.15.72-6.63,1-8.14,1.15a16.55,16.55,0,0,1-7,1.52,16.81,16.81,0,0,1-2-.12,16.49,16.49,0,0,1-6.45-1.86,8.88,8.88,0,0,1-1.25-.86l-.18-.08c-.27-.14-.59-.31-.93-.51a5.9,5.9,0,0,1-2.8-2.9,5.9,5.9,0,0,1,0-3.78c1.46-3.39,7.12-4,11.64-4.44l.73-.07h.75a32.41,32.41,0,0,1,7.69.92c.3,0,.64,0,1,0s.69,0,1.12,0C692.91,43.29,695.38,44,696.92,44.88Z" style="fill:#d35300"/><path d="M620.07,103.4l0-10.83c-9-1.56-10.67-1.95-11.24-2.08l-.57-.13c-1.85-.49-6.5-.74-13.44-.74-8.28,0-16.47,1.09-24.85,1a174.23,174.23,0,0,1-28.49-2.18,18.38,18.38,0,0,1-5.87-1.76,16.32,16.32,0,0,1-5.31-5.4c-2.91-4.34-5-10.4-1.77-14.53,2-2.58,5.4-3.53,8.59-4.15C564.76,57.3,594.08,65,621,57c.92-1.44.29-3.46-1-4.61a10.61,10.61,0,0,0-4.62-2.07c-33.48-8.58-69-4.61-102.55,3.72-2.13.53-4.26,1.08-6.41,1.51-11.23,2.28-24.52,3.46-34.85-2.07a17.68,17.68,0,0,0-6.41-1.07A49,49,0,0,1,451.9,50l-1.75-.56-1.6-.92a29.45,29.45,0,0,0-5.5-2,10.28,10.28,0,0,0-2.7-.33c-.92,0-1.81.07-2.76.14-1.89.13-3.94.26-6.36.26-1.3,0-2.69,0-4.22-.13l-6-.36-4.44-4a5.79,5.79,0,0,0-1-.73c-2.48-1.43-7.54-2.1-16-2.78-7.16.2-11.38,4.18-20.41,14.28l-6.55,7.33-9.63-2a45.74,45.74,0,0,0-9.9-1c-1.48,0-4.51-.08-8.41-.12H344c-10.15-.12-25.5-.32-32.05-.7l-1.06-.07-17-3.12a70,70,0,0,0-11.29-1.4,15.44,15.44,0,0,0-3.43.34l-9.49,2.11L263,47.17a37,37,0,0,0-3.58-3.4c-2.58-2.08-5.58-4.72-8.65-7.43-1.64-1.45-3.3-2.92-4.92-4.31a28.46,28.46,0,0,0-9.19-1.23,10.74,10.74,0,0,0-2.15.19l-4.14.88-4.07-1.17c-1.91-.54-7.56-1.34-23.66-2l-7.76-.34-4.39-5.5c-2.15-1.23-6.75-2.51-8.27-2.94l-.87-.26c-1.32-.45-5.58-.55-12.64-.73l-1.31,0a35.82,35.82,0,0,0-5.43.58l-.49.07-.5,0a14.31,14.31,0,0,0-4.09.83l-5.76,2.53-6-1.81c-6.19-1.86-12.52-3-16.48-3a55,55,0,0,0-8.83.66l-12.27,1.7L103.93,13,91.48,19.54,88.63,24l-.37.49a6.89,6.89,0,0,0-.7,2.34l-2,11.28L81.38,39a97.06,97.06,0,0,1,17,1.86L99.5,41l1.08.36c1.41.46,5.37,1.46,9.32,2.25l20.23,4.09-6.19,15.11.09.08a71.09,71.09,0,0,0,9.91.94l.65,0,.65.09c2.81.36,6.85.7,11.54,1.1,3.88.33,8.07.69,11.91,1.08,2.84.27,5.4.4,7.82.4h.43c3.77,0,7.49.24,21.13,3l2,.39,1.94.94c.87.39,5,2,22.27,6.3l.85.21a32.82,32.82,0,0,0,7.77,1.3c.61,0,2.45.22,8.66.22a93.54,93.54,0,0,0,18.18-1.38l9.93-4.71,6.75,2.53a44.76,44.76,0,0,0,10.83,1.79,53.78,53.78,0,0,0,5.76-.61l1.75-.24,1.75.12c2.47.17,7,.58,10.8.92l8.66.78a84.31,84.31,0,0,1,14.28,3.12c1.93.55,3.75,1.07,5.6,1.49s4.91,1.16,8.68,2.09l11,2.7c5.48,1.34,9.48,2.25,12.26,2.8s6.19,1.26,10.06,2.08c11.05,2.36,19.87,4.21,24.31,4.71,4.64.5,10.32.54,16.84.59,3.64,0,7.8.06,12.67.14,9.88.21,27.23,2.2,38.7,3.51l.59.07c4.17.48,7.47.84,9,1L487.79,104c3.92.39,8.79.87,12.48.87,4.82,0,7.41-.18,15.33-1.37,4.63-.69,7.51-1.32,12.74-2.46l1.9-.4a48.55,48.55,0,0,1,8.49-.75l.91,0,.9.09c2.15.2,6.74.85,8.94,1.25l.94.21c1.71.41,4.45,1.27,12.81,4.25l1.47.52,1.35.78a62.6,62.6,0,0,1,6,4l1.18,0,.8,0c2,.06,7.07.23,11,.23h.65c1,0,2.14,0,3.34-.1l2.39-.2,2.35.48c1.47.3,3.91.83,7.57,1.76l6.21,1.58,2.43,3.53c1.28.33,3.94.68,9.41.68h.69c5.08-.19,5.69-.86,7.65-3l8.07-8.77c-.85-.19-1.76-.41-2.71-.64Z" style="fill:#d35300"/><path d="M573.19,111Z" style="fill:#92d669"/><path d="M29.43,36.32a6.76,6.76,0,0,0,1.89-2.5l-3.41-6.75Z" style="fill:#d35300"/><path d="M695.39,110.15A40.45,40.45,0,0,0,691,109.1l-1.1-.23-1.07-.36a33.24,33.24,0,0,0-6.51-1.15c-1.66-.19-3.67-.42-6.14-.81a31,31,0,0,0-4.61-.42,21.42,21.42,0,0,0-6.29,1l-1,.27-1,.16c-.61.09-1.19.2-1.8.31-2,.37-4.66.87-9,1.29l-.87.09-1.81,0,5.55,10.3c.07.15.17.38.06.38a6,6,0,0,0,2.18.28c1,0,2-.11,3-.2,2-.18,4.52-.4,7.61-.4a71.4,71.4,0,0,1,11.9,1l1.48.25,1.41.5a9.69,9.69,0,0,0,3.11.47,8.17,8.17,0,0,0,3.2-.55l5.92-2.65" style="fill:#d35300"/><path d="M86.19,1.36l-2.26.5" style="fill:#ccc"/><path d="M698.27,46.2a1.79,1.79,0,0,0-.71-.68c-1.12-.65-3.15-.77-5.43-.82a34.64,34.64,0,0,0-5.28.19c-.18,0-.74-.18-1.65-.46a36,36,0,0,0-9.84-1.27c-9.85,1-10.12,1.7-10.42,2.4a6.32,6.32,0,0,0,0,3.45,2.93,2.93,0,0,0,1.4,1.33c.36.21.76.41,1.18.62s.74.38,1.09.58a4.16,4.16,0,0,1,.84.6,5.7,5.7,0,0,0,1,.75,12.44,12.44,0,0,0,4.88,1.28l1.1.07A10,10,0,0,0,682,52.58c1.21-.81,1.21-.81,3.17-.81,3.17,0,12.2-1.52,13.94-1.82a2.19,2.19,0,0,0,1.58-.89c.31-.62.18-1.6-1.08-2.33A5.74,5.74,0,0,0,698.27,46.2Zm-13.11,2.93c-3.72,0-4.82.5-6.67,1.76a3.79,3.79,0,0,1-2.07.7l-.46-.05a5.82,5.82,0,0,1-2.27-.51,1.54,1.54,0,0,1-.36-.27,8.27,8.27,0,0,0-1.52-1.08c-.44-.26-.91-.49-1.33-.7a7,7,0,0,0-1.1-.5,6.44,6.44,0,0,1-.13-1.8c1.4-.29,4.33-.67,6.49-.9a29.41,29.41,0,0,1,7.33,1,10.22,10.22,0,0,0,4.92.68c.52-.05,1.25-.12,2.69-.14l1.28,0c1.13,0,1.77.07,2.2.1l.58.48C691,48.5,686.63,49.13,685.16,49.13Z" style="fill:#ccc"/><path d="M46.73,29.94a1,1,0,0,0-.62-.83L45.9,29l-4.07-2-1.91-2.48a1.47,1.47,0,0,0-.47-.41,3.38,3.38,0,0,0-1.85-.37,21.18,21.18,0,0,1-3.12,0l-.79,0c-1.95,0-2.68.81-2.65,1-1.74.51-3.87,1.68-4.19,3.36-.29,1.38,1.08,2.42,2.33,3.14l.83.45.46.26c1.29.75,3.33.8,5.29.8l2.1,0c.83,0,1.68,0,2.63,0a9.94,9.94,0,0,0,5.09-1C46.52,31.09,46.79,30.4,46.73,29.94Zm-9,.14-2,0c-1.28,0-1.86-.06-2-.06l0,0-.65-.34-.55-.31c-.58-.34-1.2-.73-1.13-1,.11-.71,1.3-1.19,1.7-1.31a3.76,3.76,0,0,0,1.31-.65c.67,0,1.4,0,2,0l1.45,1.93.61.5L40.93,30C40,30.08,38.76,30.06,37.75,30.08Z" style="fill:#ccc"/><polygon id="JAKARTA" points="146 22.87 153 28.87 161 31.87 171 31.87 181 28.87 188 25.87 192 22.87 193 19.87 190.83 18.83 188 15.87 187 13.87 180.63 11.67 177 9.87 168 9.87 160.59 11.32 157 12.87 153 15.87 146 19.87 146 22.87" style="fill:none;stroke:#ccc;stroke-miterlimit:10;stroke-width:3px"/><path d="M678.31,111.27a6.64,6.64,0,0,0,0-2l.14-2.42a1.15,1.15,0,0,0-.67-1,2.35,2.35,0,0,0-.53-.23,3.78,3.78,0,0,0-2.38.07c-.23.1-4.72,1.9-6.27,2.66-.06,0-6.15,3.43-6.57,4.81a1.34,1.34,0,0,0,.38,1.3,2.08,2.08,0,0,0,.34.24,8.25,8.25,0,0,0,3.11.74l.49,0,.64.55a12.93,12.93,0,0,0,2.27,1.73,9.16,9.16,0,0,0,1.72.78,7.64,7.64,0,0,0,2.56.42,6.15,6.15,0,0,0,4.6-1.78l.27-.55a12.66,12.66,0,0,0-.14-3.36A15.94,15.94,0,0,1,678.31,111.27Zm-4.43,4.85-.39.19-.25-.07a3.85,3.85,0,0,1-.77-.35,9.52,9.52,0,0,1-1.62-1.28,6.85,6.85,0,0,0-1.27-1,3.94,3.94,0,0,0-.93-.39l-1.1-.21a37.55,37.55,0,0,1,4.07-2.59c.46-.23,1.28-.6,2.16-1v.21a5.07,5.07,0,0,1,0,1.52,8.94,8.94,0,0,0,.08,2.59A10.72,10.72,0,0,1,673.88,116.12Z" style="fill:#ccc"/><path d="M16.28,25.83l9.18-6.44Z" style="fill:#028455"/></g></g></g></svg>